PathFileType	4	(X/Y/Z)	Kaydara	
DataRate	CameraRate	NumFrames	NumMarkers	Units	OrigDataRate	OrigDataStartFrame	OrigNumFrames	
60.00	60.00	4	74	mm	60.00	1471	181	
Frame#	Time	Z_lasi			Z_rasi			Z_rpsi			Z_lpsi			Z_fneck			Z_bneck			Z_fhead			Z_rhead			Z_lhead			Z_rshld			Z_relbtop			Z_relbext			Z_relblow			Z_rwrext			Z_rwrtop			Z_rwrlow			Z_lshld			Z_lelbext			Z_lelblow			Z_lelbtop			Z_lwrext			Z_lwrtop			Z_lwrlow			Z_rtopleg			Z_ltopleg			Z_rkneefr			Z_rkneebk			Z_rkneeis			Z_lkneefr			Z_lknssbk			Z_lkneeis			Z_rankfr			Z_rankis			Z_rankbk			Z_lankfr			Z_lankbk			Z_lankis			A_lasi			A_rasi			A_rpsi			A_lpsi			A_fneck			A_bneck			A_fhead			A_rhead			A_lhead			A_rshld			A_relbtop			A_relbext			A_relblow			A_rwrext			A_rwrtop			A_rwrlow			A_lshld			A_lelbext			A_lelblow			A_lelbtop			A_lwrext			A_lwrtop			A_lwrlow			A_rtopleg			A_ltopleg			A_rkneefr			A_rkneebk			A_rkneeis			A_lkneefr			A_lknssbk			A_lkneeis			A_rankfr			A_rankis			A_rankbk			A_lankfr			A_lankbk			A_lankis			
		X1	Y1	Z1	X2	Y2	Z2	X3	Y3	Z3	X4	Y4	Z4	X5	Y5	Z5	X6	Y6	Z6	X7	Y7	Z7	X8	Y8	Z8	X9	Y9	Z9	X10	Y10	Z10	X11	Y11	Z11	X12	Y12	Z12	X13	Y13	Z13	X14	Y14	Z14	X15	Y15	Z15	X16	Y16	Z16	X17	Y17	Z17	X18	Y18	Z18	X19	Y19	Z19	X20	Y20	Z20	X21	Y21	Z21	X22	Y22	Z22	X23	Y23	Z23	X24	Y24	Z24	X25	Y25	Z25	X26	Y26	Z26	X27	Y27	Z27	X28	Y28	Z28	X29	Y29	Z29	X30	Y30	Z30	X31	Y31	Z31	X32	Y32	Z32	X33	Y33	Z33	X34	Y34	Z34	X35	Y35	Z35	X36	Y36	Z36	X37	Y37	Z37	X38	Y38	Z38	X39	Y39	Z39	X40	Y40	Z40	X41	Y41	Z41	X42	Y42	Z42	X43	Y43	Z43	X44	Y44	Z44	X45	Y45	Z45	X46	Y46	Z46	X47	Y47	Z47	X48	Y48	Z48	X49	Y49	Z49	X50	Y50	Z50	X51	Y51	Z51	X52	Y52	Z52	X53	Y53	Z53	X54	Y54	Z54	X55	Y55	Z55	X56	Y56	Z56	X57	Y57	Z57	X58	Y58	Z58	X59	Y59	Z59	X60	Y60	Z60	X61	Y61	Z61	X62	Y62	Z62	X63	Y63	Z63	X64	Y64	Z64	X65	Y65	Z65	X66	Y66	Z66	X67	Y67	Z67	X68	Y68	Z68	X69	Y69	Z69	X70	Y70	Z70	X71	Y71	Z71	X72	Y72	Z72	X73	Y73	Z73	X74	Y74	Z74	

1	24.500	-236.49672	1060.48203	785.52849	-280.57472	1079.74777	582.18292	-103.15334	1110.36301	506.69422	-45.31948	1092.08199	742.24297	-222.02745	1446.28723	659.75754	-117.04694	1504.06662	703.13324	-242.26860	1649.82742	556.98952	-90.93494	1639.47906	629.36951	-205.30117	1642.88986	722.84996	-143.83244	1428.26111	478.41686	-105.58981	1110.10262	394.70825	-90.12416	1090.34218	451.42853	-177.37213	1120.89859	421.12301	-205.76895	885.00793	373.00205	-243.21606	898.23921	395.79533	-226.96173	890.85327	435.47756	-141.81531	1438.52020	876.06529	-80.58124	1141.51886	924.29970	-180.88818	1140.74402	940.36804	-114.22463	1138.56445	958.12187	-245.67677	884.77242	917.24724	-241.37150	877.47040	963.51280	-194.92523	872.92969	963.95439	-149.82725	920.69069	449.93584	-141.43040	881.84486	814.59465	-260.53217	422.88429	443.14930	-188.37666	457.06734	399.09111	-200.19436	426.55636	521.83159	-186.32315	439.21345	724.52820	-80.79971	464.04839	719.12231	-173.24894	443.61111	632.15488	-210.20828	186.03594	395.69603	-188.83322	174.79248	458.02319	-133.37389	181.30785	390.67589	-127.94390	155.71766	688.75000	-69.61178	163.95273	633.35587	-148.33213	174.49259	620.86136	-959.61319	1031.16913	483.85040	-952.32651	1037.73392	642.98286	-1112.99393	1037.32399	657.42363	-1082.99294	1041.88499	476.44653	-1031.09795	1380.56046	575.80318	-1168.94333	1412.53891	562.73510	-972.38785	1583.97583	590.13313	-1124.28925	1559.68094	667.18681	-1117.06772	1565.56000	504.13544	-1120.64575	1344.89594	748.81012	-1101.26328	1052.19429	780.80635	-1158.68652	1044.45251	751.01624	-1090.00671	1041.52924	725.63042	-1077.33589	806.29158	806.19057	-1033.74245	817.12166	800.35187	-1034.40247	816.73653	761.75964	-1062.99286	1354.20685	395.21675	-1088.67043	1044.19281	371.36089	-1021.99738	1051.82114	399.61262	-1044.27315	1050.70320	349.44378	-1003.26515	822.29500	386.19419	-1001.58752	826.24260	343.76167	-959.42741	834.40674	359.80808	-1063.99467	875.28595	737.83730	-1017.48512	890.12802	402.64767	-1025.17860	450.57537	652.75002	-1134.27895	487.88506	692.73193	-1108.58719	486.18904	575.34798	-1006.60316	462.39784	514.16851	-1090.12871	481.18740	417.39998	-1114.16527	479.69357	541.60583	-1101.52664	166.59157	673.75023	-1131.03882	163.66276	606.44981	-1182.70309	155.43218	673.47313	-1065.65392	166.59725	457.62672	-1126.54854	169.53009	422.34882	-1125.20271	173.77419	511.97834 
2	24.517	-237.74067	1060.75134	784.82506	-281.07534	1079.86145	581.29139	-103.11315	1110.78308	506.44730	-46.20343	1092.44995	742.10136	-222.64469	1447.77924	658.97690	-116.86625	1504.06693	702.54227	-237.24838	1651.83929	555.10674	-86.92051	1637.78015	629.05975	-201.91343	1644.51462	721.29311	-143.29846	1428.47595	477.66731	-103.78275	1109.86549	396.38428	-89.56483	1090.23827	453.04256	-176.13836	1120.75790	421.29131	-202.94243	884.44176	373.49644	-241.01551	897.76329	395.48100	-226.32793	890.57449	435.98503	-143.60031	1439.20685	875.23743	-83.94152	1142.87491	925.62973	-183.79040	1141.96556	941.05446	-118.04294	1140.05508	960.09552	-249.03040	886.55014	916.55891	-246.17521	879.10980	963.10616	-199.97738	874.54384	964.63905	-149.29698	921.06537	449.43275	-142.06288	882.13943	814.01970	-259.29550	423.12035	442.69318	-186.88705	457.09373	398.96652	-198.82326	426.56609	521.24012	-185.71468	439.25545	723.97064	-80.35344	464.06517	718.74374	-172.60551	443.69091	631.66527	-209.55965	186.14355	395.29713	-188.35377	174.81913	457.62497	-132.82039	181.15469	390.45998	-127.78424	155.80968	688.65250	-69.25990	164.44525	632.22679	-148.05728	174.55572	620.69866	-959.45984	1031.13968	484.12071	-952.06657	1037.43698	643.17802	-1112.94418	1037.29324	657.63046	-1082.81654	1041.83884	476.63166	-1030.68314	1380.63034	576.13060	-1168.58055	1412.15515	563.03143	-972.25372	1584.56284	590.39867	-1124.09805	1559.54956	667.35809	-1116.87698	1565.25742	504.33266	-1120.24948	1344.94736	749.25003	-1100.90714	1052.20932	781.03882	-1158.38890	1044.49829	751.29539	-1090.38170	1041.88187	724.82407	-1076.86050	806.30997	806.40091	-1033.04367	817.00722	800.39146	-1033.51891	816.99539	762.26059	-1062.59781	1354.26041	395.46497	-1088.59604	1044.26125	371.55807	-1021.96671	1051.83533	399.77669	-1044.23195	1050.74875	349.67072	-1003.30803	822.35634	386.32061	-1001.75278	826.27426	343.98094	-959.52301	834.39903	359.76173	-1063.87596	875.45525	738.09662	-1017.24846	890.19547	402.78107	-1025.21362	450.56187	652.86705	-1134.34494	487.87506	692.79510	-1108.59756	486.20098	575.39825	-1006.72043	462.37015	514.41425	-1090.03281	481.20811	417.46128	-1114.17740	479.70345	541.67797	-1101.55563	166.58773	673.73375	-1131.03882	163.66276	606.44981	-1182.72133	155.41728	673.45512	-1065.61745	166.63214	457.68604	-1126.50780	169.54502	422.37629	-1125.25879	173.79551	512.03552 
3	24.533	-239.01293	1061.06682	783.87169	-281.40402	1079.80011	580.21759	-102.86928	1111.13045	506.27598	-45.44599	1093.02231	746.45027	-222.66733	1448.95081	657.94151	-116.52860	1503.95004	701.96732	-232.41173	1653.83926	553.72974	-83.30754	1636.32614	629.35051	-199.68653	1645.75333	720.75111	-142.94479	1429.05197	476.77582	-102.25165	1109.75845	397.73083	-88.89718	1090.58533	454.81754	-174.92887	1120.76859	421.40675	-200.53913	884.07623	374.13677	-238.98149	897.42844	395.22835	-224.93631	890.47714	436.25099	-145.05061	1439.62128	874.52721	-86.92638	1143.60603	927.20276	-186.59267	1142.95517	941.37047	-121.07354	1140.81184	961.32401	-252.63554	888.09029	916.19652	-251.11042	880.86769	962.73003	-204.84501	875.81787	965.23689	-148.62346	921.23695	448.89275	-142.46424	882.10129	813.53569	-258.05536	423.20602	442.27013	-185.53776	457.05658	398.76228	-198.08908	426.60519	521.09901	-185.54201	439.28875	723.52974	-80.23603	464.26311	718.54614	-172.25061	443.73951	631.28826	-209.11804	186.21723	395.04971	-188.07764	174.83116	457.35184	-132.36334	180.91784	390.31811	-127.76082	155.93139	688.60565	-69.03383	164.55135	631.97498	-147.94918	174.59490	620.64941	-959.32365	1031.06354	484.40411	-951.97426	1037.28317	643.30612	-1112.87758	1037.35100	657.79480	-1082.67159	1041.89178	476.90861	-1030.10101	1380.69382	576.31798	-1168.01949	1411.66779	563.41393	-972.23648	1585.15121	590.76000	-1123.72261	1559.27689	667.61314	-1116.68762	1564.94797	504.57375	-1119.85359	1344.96765	749.54811	-1100.40825	1052.26395	781.25366	-1158.01277	1044.54338	751.70166	-1089.29398	1041.92688	725.85136	-1076.46233	806.39603	806.60973	-1032.50786	817.04674	800.47157	-1033.19038	816.97304	762.33917	-1062.24991	1354.30740	395.69313	-1088.53180	1044.33487	371.72443	-1021.89529	1051.84578	399.91444	-1044.15901	1050.77576	349.81812	-1003.33969	822.36618	386.45374	-1001.93695	826.26999	344.17198	-959.59236	834.38148	359.69807	-1064.09744	875.27428	738.29567	-1017.19780	890.23613	402.91031	-1025.22766	450.53253	652.97897	-1134.35341	487.83642	692.86034	-1108.59543	486.21075	575.46829	-1006.59012	462.41779	514.47968	-1089.97070	481.21674	417.59823	-1114.19067	479.71336	541.72497	-1101.47186	166.48483	673.86292	-1131.06865	163.66446	606.42654	-1182.71133	155.39845	673.41125	-1065.57983	166.65428	457.74796	-1126.47484	169.58771	422.38987	-1125.23483	173.80428	512.03243 
4	24.550	-239.84735	1061.19827	782.69997	-281.73969	1079.63356	578.92185	-102.51843	1111.46439	506.05293	-46.53203	1093.03192	746.05713	-222.58194	1449.94980	656.79893	-116.18487	1503.77380	701.39687	-228.16298	1655.73273	553.01907	-80.39187	1635.13809	630.21156	-197.44844	1646.56372	720.35530	-142.77023	1429.46365	475.85659	-100.92156	1109.79141	398.61755	-88.57375	1090.77408	455.85899	-173.96095	1120.79498	421.24157	-198.54231	883.89000	374.68739	-237.32870	897.22374	395.19928	-223.91321	890.42213	436.52786	-146.00949	1439.69223	873.68721	-89.04124	1144.07303	927.39395	-189.39997	1143.78464	941.47087	-124.19599	1141.47873	962.35214	-256.68785	889.40758	915.99525	-256.01025	882.25433	962.58820	-209.87280	876.66931	965.98267	-147.90851	921.25755	448.44604	-143.09687	882.12051	813.20473	-257.11966	423.29895	441.95877	-184.37334	456.95538	398.54954	-197.19955	426.42799	520.80750	-185.59820	439.33125	723.18161	-80.37237	464.37721	718.43109	-172.09240	443.75206	630.95966	-208.70184	186.15068	394.81323	-187.81895	174.70327	457.11315	-131.96347	180.61525	390.17220	-127.78123	155.98410	688.55797	-69.00925	164.51668	632.03926	-147.63577	174.28461	620.31406	-959.21585	1031.00510	484.64142	-951.71349	1037.30232	643.44131	-1112.78046	1037.35916	657.97607	-1083.17200	1041.65077	476.25351	-1029.59732	1380.75256	576.52172	-1167.57256	1411.20728	563.63373	-972.14813	1585.57022	591.00758	-1123.45131	1558.99002	667.89253	-1116.46561	1564.66599	504.79568	-1119.46884	1345.03082	749.78119	-1100.17090	1052.28973	781.52351	-1157.74170	1044.59663	752.03758	-1088.42049	1042.00478	726.58363	-1076.06171	806.46797	806.81038	-1032.08694	817.09770	800.48126	-1033.79677	816.35674	761.51909	-1061.84601	1354.34387	395.97599	-1088.43063	1044.39476	371.82289	-1021.80939	1051.85135	399.99214	-1044.05861	1050.82413	349.95090	-1003.37540	822.38358	386.55861	-1002.02812	826.25183	344.30084	-959.66690	834.33632	359.67625	-1064.10995	875.30533	738.61488	-1017.06467	890.26848	403.04455	-1025.25871	450.51914	653.09166	-1134.38698	487.81929	692.91718	-1108.58337	486.20800	575.52368	-1006.52740	462.42863	514.52545	-1089.93233	481.24603	417.68291	-1114.17381	479.71024	541.80389	-1101.61484	166.69214	674.05548	-1131.06514	163.67050	606.37371	-1182.71927	155.37578	673.36555	-1065.57648	166.66273	457.80190	-1126.45309	169.59261	422.44007	-1125.26283	173.79328	512.05418 
